<svg width="676" height="746" viewBox="0 0 676 746" fill="none" xmlns="http://www.w3.org/2000/svg">
<rect width="676" height="746" rx="17" fill="#F4F9FF"/>
<rect x="183" y="56" width="310" height="116" rx="20" fill="#E8F0F9"/>
<rect x="139.5" y="208" width="397" height="76" rx="24" fill="#E8F0F9"/>
<rect x="160" y="234" width="352" height="24" rx="12" fill="#F4F9FF"/>
<rect x="206" y="114" width="265" height="37" rx="18.5" fill="#F4F9FF"/>
<rect x="254" y="82" width="169" height="17" rx="8.5" fill="#F4F9FF"/>
<path d="M633 319H43V321H633V319Z" fill="#E8EEF5" mask="url(#path-2-inside-1_105_216)"/>
<path d="M135 496C135 491.582 138.582 488 143 488H177C181.418 488 185 491.582 185 496V577H135V496Z" fill="#E8F0F9"/>
<path d="M135 496C135 491.582 138.582 488 143 488H177C181.418 488 185 491.582 185 496V510H135V496Z" fill="#D3DDE8"/>
<path d="M224 472C224 467.582 227.582 464 232 464H266C270.418 464 274 467.582 274 472V577H224V472Z" fill="#E8F0F9"/>
<path d="M224 472C224 467.582 227.582 464 232 464H266C270.418 464 274 467.582 274 472V500H224V472Z" fill="#D3DDE8"/>
<path d="M313 442C313 437.582 316.582 434 321 434H355C359.418 434 363 437.582 363 442V577H313V442Z" fill="#E8F0F9"/>
<path d="M313 442C313 437.582 316.582 434 321 434H355C359.418 434 363 437.582 363 442V485H313V442Z" fill="#D3DDE8"/>
<path d="M402 405C402 400.582 405.582 397 410 397H444C448.418 397 452 400.582 452 405V577H402V405Z" fill="#E8F0F9"/>
<path d="M402 405C402 400.582 405.582 397 410 397H444C448.418 397 452 400.582 452 405V458H402V405Z" fill="#D3DDE8"/>
<path d="M491 373C491 368.582 494.582 365 499 365H533C537.418 365 541 368.582 541 373V577H491V373Z" fill="#E8F0F9"/>
<path d="M491 373C491 368.582 494.582 365 499 365H533C537.418 365 541 368.582 541 373V451H491V373Z" fill="#D3DDE8"/>
<path d="M76.4829 577H599.517" stroke="#D6DBE1"/>
<rect x="215" y="638" width="246" height="52" rx="10" fill="#E8F0F9"/>
<rect x="267" y="653" width="143" height="21" rx="10" fill="#F4F9FF"/>
</svg>
